HIERARCHY
ROOT hip
{
	OFFSET 0.000000 0.000000 0.000000
	CHANNELS 6 Xposition Yposition Zposition Xrotation Zrotation Yrotation 
	JOINT abdomen
	{
		OFFSET 0.000000 3.422050 0.000000
		CHANNELS 3 Xrotation Zrotation Yrotation 
		JOINT chest
		{
			OFFSET 0.000000 8.486693 -0.6844110
			CHANNELS 3 Xrotation Zrotation Yrotation 
			JOINT neck
			{
				OFFSET 0.000000 10.26616 -0.2737640
				CHANNELS 3 Xrotation Zrotation Yrotation 
				JOINT head
				{
					OFFSET 0.000000 3.148285 0.000000
					CHANNELS 3 Xrotation Zrotation Yrotation 
					End Site
					{
						OFFSET 0.000000 3.148289 0.000000
					}
				}
			}
			JOINT lCollar
			{
				OFFSET 3.422053 6.707223 -0.8212930
				CHANNELS 3 Yrotation Zrotation Xrotation 
				JOINT lShldr
				{
					OFFSET 3.285171 0.000000 0.000000
					CHANNELS 3 Zrotation Yrotation Xrotation 
					JOINT lForeArm
					{
						OFFSET 10.12928 0.000000 0.000000
						CHANNELS 3 Yrotation Zrotation Xrotation 
						JOINT lHand
						{
							OFFSET 8.486692 0.000000 0.000000
							CHANNELS 3 Zrotation Yrotation Xrotation 
							End Site
							{
								OFFSET 4.106464 0.000000 0.000000
							}
						}
					}
				}
			}
			JOINT rCollar
			{
				OFFSET -3.558935 6.707223 -0.8212930
				CHANNELS 3 Yrotation Zrotation Xrotation 
				JOINT rShldr
				{
					OFFSET -3.148289 0.000000 0.000000
					CHANNELS 3 Zrotation Yrotation Xrotation 
					JOINT rForeArm
					{
						OFFSET -10.26616 0.000000 0.000000
						CHANNELS 3 Yrotation Zrotation Xrotation 
						JOINT rHand
						{
							OFFSET -8.349810 0.000000 0.000000
							CHANNELS 3 Zrotation Yrotation Xrotation 
							End Site
							{
								OFFSET -4.106464 0.000000 0.000000
							}
						}
					}
				}
			}
		}
	}
	JOINT lThigh
	{
		OFFSET 5.338403 -1.642589 1.368821
		CHANNELS 3 Xrotation Zrotation Yrotation 
		JOINT lShin
		{
			OFFSET -2.053232 -20.12167 0.000000
			CHANNELS 3 Xrotation Zrotation Yrotation 
			JOINT lFoot
			{
				OFFSET 0.000000 -19.30038 -1.231939
				CHANNELS 3 Xrotation Yrotation Zrotation 
				End Site
				{
					OFFSET 0.000000 -2.463878 4.653993
				}
			}
		}
	}
	JOINT rThigh
	{
		OFFSET -5.338403 -1.642589 1.368821
		CHANNELS 3 Xrotation Zrotation Yrotation 
		JOINT rShin
		{
			OFFSET 2.053232 -20.12167 0.000000
			CHANNELS 3 Xrotation Zrotation Yrotation 
			JOINT rFoot
			{
				OFFSET 0.000000 -19.30038 -1.231939
				CHANNELS 3 Xrotation Yrotation Zrotation 
				End Site
				{
					OFFSET 0.000000 -2.463878 4.653993
				}
			}
		}
	}
}
MOTION
Frames:	12
Frame Time:	0.03333333
0.000000 43.52852 0.000000 0.000000 0.000000 0.000000 0.000000 0.000000 0.000000 0.000000 0.000000 0.000000 0.000000 0.000000 0.000000 0.000000 0.000000 0.000000 0.000000 0.000000 0.000000 0.000000 0.000000 0.000000 0.000000 0.000000 0.000000 0.000000 0.000000 0.000000 0.000000 0.000000 0.000000 0.000000 0.000000 0.000000 0.000000 0.000000 0.000000 0.000000 0.000000 0.000000 0.000000 0.000000 0.000000 0.000000 0.000000 0.000000 0.000000 0.000000 0.000000 0.000000 0.000000 0.000000 0.000000 0.000000 0.000000 0.000000 0.000000 0.000000 
0.000000 43.52850 10.00000 0.000000 0.000000 0.000000 6.666667 0.000000 0.000000 0.000000 0.000000 5.000000 0.000000 0.000000 0.000000 -3.333333 0.000000 0.000000 0.000000 0.000000 0.000000 -35.00000 0.000000 15.00000 -45.00000 0.000000 0.000000 8.000000 0.000000 10.00000 0.000000 0.000000 0.000000 35.00000 0.000000 15.00000 45.00000 0.000000 0.000000 0.000000 0.000000 0.000000 -45.00000 2.500000 0.000000 45.00000 0.000000 0.000000 0.000000 0.000000 0.000000 -45.00000 -2.500000 0.000000 45.00000 0.000000 0.000000 0.000000 0.000000 0.000000 
0.000000 43.52850 20.00000 0.000000 0.000000 0.000000 13.33333 0.000000 0.000000 0.000000 0.000000 10.00000 0.000000 0.000000 0.000000 -6.666667 0.000000 0.000000 0.000000 0.000000 0.000000 -70.00000 0.000000 30.00000 -90.00000 0.000000 0.000000 16.00000 0.000000 20.00000 0.000000 0.000000 0.000000 70.00000 0.000000 30.00000 90.00000 0.000000 0.000000 0.000000 0.000000 0.000000 -90.00000 5.000000 0.000000 90.00000 0.000000 0.000000 0.000000 0.000000 0.000000 -90.00000 -5.000000 0.000000 90.00000 0.000000 0.000000 0.000000 0.000000 0.000000 
0.000000 43.52850 30.00000 0.000000 0.000000 0.000000 20.00000 0.000000 0.000000 0.000000 0.000000 15.00000 0.000000 0.000000 0.000000 -10.00000 0.000000 0.000000 0.000000 0.000000 0.000000 -45.00000 -50.00000 30.00000 -70.00000 2.500000 0.000000 24.00000 0.000000 30.00000 0.000000 0.000000 0.000000 -6.000000 70.00000 -25.00000 59.00000 -5.000000 0.000000 0.000000 0.000000 0.000000 -90.00000 5.000000 0.000000 90.00000 0.000000 0.000000 0.000000 0.000000 0.000000 -90.00000 -5.000000 0.000000 90.00000 0.000000 0.000000 0.000000 0.000000 0.000000 
0.000000 43.52850 30.00000 0.000000 0.000000 0.000000 20.00000 0.000000 0.000000 0.000000 0.000000 20.00000 0.000000 0.000000 0.000000 -10.00000 0.000000 0.000000 0.000000 0.000000 0.000000 -34.00000 -48.00000 14.50000 -50.00000 5.000000 0.000000 24.00000 0.000000 30.00000 0.000000 0.000000 0.000000 -6.000000 90.00000 -25.00000 43.00000 -5.000000 0.000000 0.000000 0.000000 0.000000 -90.00000 5.000000 0.000000 90.00000 0.000000 0.000000 0.000000 0.000000 0.000000 -90.00000 -5.000000 0.000000 90.00000 0.000000 0.000000 0.000000 0.000000 0.000000 
0.000000 43.52850 30.00000 0.000000 0.000000 0.000000 20.00000 0.000000 0.000000 0.000000 0.000000 19.70370 0.000000 0.000000 0.000000 -10.00000 0.000000 0.000000 0.000000 0.000000 0.000000 -33.91852 -47.57037 14.38519 -50.25185 5.000000 0.000000 24.00000 0.000000 30.00000 0.000000 0.000000 0.000000 -6.000000 89.85185 -25.00000 43.11852 -5.000000 0.000000 0.000000 0.000000 0.000000 -90.00000 5.000000 0.000000 90.00000 0.000000 0.000000 0.000000 0.000000 0.000000 -90.00000 -5.000000 0.000000 90.00000 0.000000 0.000000 0.000000 0.000000 0.000000 
0.000000 43.52850 30.00000 0.000000 0.000000 0.000000 20.00000 0.000000 0.000000 0.000000 0.000000 19.40741 0.000000 0.000000 0.000000 -10.00000 0.000000 0.000000 0.000000 0.000000 0.000000 -33.83704 -47.14074 14.27037 -50.50370 5.000000 0.000000 24.00000 0.000000 30.00000 0.000000 0.000000 0.000000 -6.000000 89.70370 -25.00000 43.23704 -5.000000 0.000000 0.000000 0.000000 0.000000 -90.00000 5.000000 0.000000 90.00000 0.000000 0.000000 0.000000 0.000000 0.000000 -90.00000 -5.000000 0.000000 90.00000 0.000000 0.000000 0.000000 0.000000 0.000000 
0.000000 43.52850 30.00000 0.000000 0.000000 0.000000 20.00000 0.000000 0.000000 0.000000 0.000000 19.11111 0.000000 0.000000 0.000000 -10.00000 0.000000 0.000000 0.000000 0.000000 0.000000 -33.75555 -46.71111 14.15556 -50.75555 5.000000 0.000000 24.00000 0.000000 30.00000 0.000000 0.000000 0.000000 -6.000000 89.55556 -25.00000 43.35556 -5.000000 0.000000 0.000000 0.000000 0.000000 -90.00000 5.000000 0.000000 90.00000 0.000000 0.000000 0.000000 0.000000 0.000000 -90.00000 -5.000000 0.000000 90.00000 0.000000 0.000000 0.000000 0.000000 0.000000 
0.000000 43.52850 30.00000 0.000000 0.000000 0.000000 20.00000 0.000000 0.000000 0.000000 0.000000 18.81482 0.000000 0.000000 0.000000 -10.00000 0.000000 0.000000 0.000000 0.000000 0.000000 -33.67407 -46.28148 14.04074 -51.00741 5.000000 0.000000 24.00000 0.000000 30.00000 0.000000 0.000000 0.000000 -6.000000 89.40741 -25.00000 43.47408 -5.000000 0.000000 0.000000 0.000000 0.000000 -90.00000 5.000000 0.000000 90.00000 0.000000 0.000000 0.000000 0.000000 0.000000 -90.00000 -5.000000 0.000000 90.00000 0.000000 0.000000 0.000000 0.000000 0.000000 
0.000000 43.52850 30.00000 0.000000 0.000000 0.000000 20.00000 0.000000 0.000000 0.000000 0.000000 18.51852 0.000000 0.000000 0.000000 -10.00000 0.000000 0.000000 0.000000 0.000000 0.000000 -33.59259 -45.85185 13.92593 -51.25926 5.000000 0.000000 24.00000 0.000000 30.00000 0.000000 0.000000 0.000000 -6.000000 89.25926 -25.00000 43.59259 -5.000000 0.000000 0.000000 0.000000 0.000000 -90.00000 5.000000 0.000000 90.00000 0.000000 0.000000 0.000000 0.000000 0.000000 -90.00000 -5.000000 0.000000 90.00000 0.000000 0.000000 0.000000 0.000000 0.000000 
0.000000 43.52850 30.00000 0.000000 0.000000 0.000000 20.00000 0.000000 0.000000 0.000000 0.000000 18.22222 0.000000 0.000000 0.000000 -10.00000 0.000000 0.000000 0.000000 0.000000 0.000000 -33.51111 -45.42222 13.81111 -51.51111 5.000000 0.000000 24.00000 0.000000 30.00000 0.000000 0.000000 0.000000 -6.000000 89.11111 -25.00000 43.71111 -5.000000 0.000000 0.000000 0.000000 0.000000 -90.00000 5.000000 0.000000 90.00000 0.000000 0.000000 0.000000 0.000000 0.000000 -90.00000 -5.000000 0.000000 90.00000 0.000000 0.000000 0.000000 0.000000 0.000000 
0.000000 43.52850 30.00000 0.000000 0.000000 0.000000 20.00000 0.000000 0.000000 0.000000 0.000000 17.92593 0.000000 0.000000 0.000000 -10.00000 0.000000 0.000000 0.000000 0.000000 0.000000 -33.42963 -44.99259 13.69630 -51.76296 5.000000 0.000000 24.00000 0.000000 30.00000 0.000000 0.000000 0.000000 -6.000000 88.96296 -25.00000 43.82963 -5.000000 0.000000 0.000000 0.000000 0.000000 -90.00000 5.000000 0.000000 90.00000 0.000000 0.000000 0.000000 0.000000 0.000000 -90.00000 -5.000000 0.000000 90.00000 0.000000 0.000000 0.000000 0.000000 0.000000 
